<svg width="32" height="32" viewBox="0 0 32 32" fill="none" xmlns="http://www.w3.org/2000/svg">
<g id="heroicons-mini/play-circle">
<g id="Subtract">
<path fill-rule="evenodd" clip-rule="evenodd" d="M3.2002 16C3.2002 8.93075 8.93095 3.2 16.0002 3.2C23.0694 3.2 28.8002 8.93075 28.8002 16C28.8002 23.0692 23.0694 28.8 16.0002 28.8C8.93095 28.8 3.2002 23.0692 3.2002 16ZM13.4252 11.3467C13.8105 11.1364 14.2799 11.1532 14.6491 11.3906L20.2491 14.9906C20.5926 15.2114 20.8002 15.5917 20.8002 16C20.8002 16.4083 20.5926 16.7886 20.2491 17.0094L14.6491 20.6094C14.2799 20.8468 13.8105 20.8636 13.4252 20.6532C13.0399 20.4429 12.8002 20.039 12.8002 19.6V12.4C12.8002 11.961 13.0399 11.5571 13.4252 11.3467Z" fill="#C0C0C0" style="mix-blend-mode:color-dodge"/>
</g>
</g>
</svg>
